HIERARCHY
ROOT hip
{
  OFFSET 0 0 0
  CHANNELS 6 Xposition Yposition Zposition Zrotation Yrotation Xrotation
  JOINT abdomen
  {
    OFFSET 0 20.6881 -0.73152
    CHANNELS 3 Zrotation Xrotation Yrotation
    JOINT chest
    {
      OFFSET 0 11.7043 -0.48768
      CHANNELS 3 Zrotation Xrotation Yrotation
      JOINT neck
      {
        OFFSET 0 22.1894 -2.19456
        CHANNELS 3 Zrotation Xrotation Yrotation
        JOINT head
        {
          OFFSET -0.24384 7.07133 1.2192
          CHANNELS 3 Zrotation Xrotation Yrotation
          JOINT leftEye
          {
            OFFSET 4.14528 8.04674 8.04672
            CHANNELS 3 Zrotation Xrotation Yrotation
            End Site
            {
              OFFSET 1 0 0
            }
          }
          JOINT rightEye
          {
            OFFSET -3.6576 8.04674 8.04672
            CHANNELS 3 Zrotation Xrotation Yrotation
            End Site
            {
              OFFSET 1 0 0
            }
          }
        }
      }
      JOINT rCollar
      {
        OFFSET -2.68224 19.2634 -4.8768
        CHANNELS 3 Zrotation Xrotation Yrotation
        JOINT rShldr
        {
          OFFSET -8.77824 -1.95073 1.46304
          CHANNELS 3 Zrotation Xrotation Yrotation
          JOINT rForeArm
          {
            OFFSET -28.1742 -1.7115 0.48768
            CHANNELS 3 Zrotation Xrotation Yrotation
            JOINT rHand
            {
              OFFSET -22.5879 0.773209 7.07136
              CHANNELS 3 Zrotation Xrotation Yrotation
              JOINT rThumb1
              {
                OFFSET -1.2192 -0.487915 3.41376
                CHANNELS 3 Zrotation Xrotation Yrotation
                JOINT rThumb2
                {
                  OFFSET -3.37035 -0.52449 3.41376
                  CHANNELS 3 Zrotation Xrotation Yrotation
                  End Site
                  {
                    OFFSET -1.78271 -1.18214 1.43049
                  }
                }
              }
              JOINT rIndex1
              {
                OFFSET -7.75947 0.938293 5.60832
                CHANNELS 3 Zrotation Xrotation Yrotation
                JOINT rIndex2
                {
                  OFFSET -2.54057 -0.884171 1.56538
                  CHANNELS 3 Zrotation Xrotation Yrotation
                  End Site
                  {
                    OFFSET -1.62519 -0.234802 1.16502
                  }
                }
              }
              JOINT rMid1
              {
                OFFSET -8.24714 1.18213 3.41376
                CHANNELS 3 Zrotation Xrotation Yrotation
                JOINT rMid2
                {
                  OFFSET -3.10165 -0.590103 1.0647
                  CHANNELS 3 Zrotation Xrotation Yrotation
                  End Site
                  {
                    OFFSET -2.48547 -0.328903 0.83742
                  }
                }
              }
              JOINT rRing1
              {
                OFFSET -8.82822 0.546677 1.51678
                CHANNELS 3 Zrotation Xrotation Yrotation
                JOINT rRing2
                {
                  OFFSET -2.60934 -0.819778 -0.0198488
                  CHANNELS 3 Zrotation Xrotation Yrotation
                  End Site
                  {
                    OFFSET -2.33842 -0.294052 0.168128
                  }
                }
              }
              JOINT rPinky1
              {
                OFFSET -8.27202 -0.0477905 -0.4584
                CHANNELS 3 Zrotation Xrotation Yrotation
                JOINT rPinky2
                {
                  OFFSET -1.82734 -0.647385 -0.700984
                  CHANNELS 3 Zrotation Xrotation Yrotation
                  End Site
                  {
                    OFFSET -1.69225 -0.51767 -0.607171
                  }
                }
              }
            }
          }
        }
      }
      JOINT lCollar
      {
        OFFSET 2.68224 19.2634 -4.8768
        CHANNELS 3 Zrotation Xrotation Yrotation
        JOINT lShldr
        {
          OFFSET 8.77824 -1.95073 1.46304
          CHANNELS 3 Zrotation Xrotation Yrotation
          JOINT lForeArm
          {
            OFFSET 28.1742 -1.7115 0.48768
            CHANNELS 3 Zrotation Xrotation Yrotation
            JOINT lHand
            {
              OFFSET 22.5879 0.773209 7.07136
              CHANNELS 3 Zrotation Xrotation Yrotation
              JOINT lThumb1
              {
                OFFSET 1.2192 -0.487915 3.41376
                CHANNELS 3 Zrotation Xrotation Yrotation
                JOINT lThumb2
                {
                  OFFSET 3.37035 -0.52449 3.41376
                  CHANNELS 3 Zrotation Xrotation Yrotation
                  End Site
                  {
                    OFFSET 1.78271 -1.18214 1.43049
                  }
                }
              }
              JOINT lIndex1
              {
                OFFSET 7.75947 0.938293 5.60832
                CHANNELS 3 Zrotation Xrotation Yrotation
                JOINT lIndex2
                {
                  OFFSET 2.54057 -0.884171 1.56538
                  CHANNELS 3 Zrotation Xrotation Yrotation
                  End Site
                  {
                    OFFSET 1.62519 -0.234802 1.16502
                  }
                }
              }
              JOINT lMid1
              {
                OFFSET 8.24714 1.18213 3.41376
                CHANNELS 3 Zrotation Xrotation Yrotation
                JOINT lMid2
                {
                  OFFSET 3.10165 -0.590103 1.0647
                  CHANNELS 3 Zrotation Xrotation Yrotation
                  End Site
                  {
                    OFFSET 2.48547 -0.328903 0.83742
                  }
                }
              }
              JOINT lRing1
              {
                OFFSET 8.82822 0.546677 1.51678
                CHANNELS 3 Zrotation Xrotation Yrotation
                JOINT lRing2
                {
                  OFFSET 2.60934 -0.819778 -0.0198488
                  CHANNELS 3 Zrotation Xrotation Yrotation
                  End Site
                  {
                    OFFSET 2.33842 -0.294052 0.168128
                  }
                }
              }
              JOINT lPinky1
              {
                OFFSET 8.27202 -0.0477905 -0.4584
                CHANNELS 3 Zrotation Xrotation Yrotation
                JOINT lPinky2
                {
                  OFFSET 1.82734 -0.647385 -0.700984
                  CHANNELS 3 Zrotation Xrotation Yrotation
                  End Site
                  {
                    OFFSET 1.69225 -0.51767 -0.607171
                  }
                }
              }
            }
          }
        }
      }
    }
  }
  JOINT rButtock
  {
    OFFSET -8.77824 4.35084 1.2192
    CHANNELS 3 Zrotation Xrotation Yrotation
    JOINT rThigh
    {
      OFFSET 0 -1.70687 -2.19456
      CHANNELS 3 Zrotation Xrotation Yrotation
      JOINT rShin
      {
        OFFSET 0 -36.8199 0.73152
        CHANNELS 3 Zrotation Xrotation Yrotation
        JOINT rFoot
        {
          OFFSET 0.73152 -45.1104 -5.12064
          CHANNELS 3 Zrotation Xrotation Yrotation
          End Site
          {
            OFFSET -1.1221 -3.69964 12.103
          }
        }
      }
    }
  }
  JOINT lButtock
  {
    OFFSET 8.77824 4.35084 1.2192
    CHANNELS 3 Zrotation Xrotation Yrotation
    JOINT lThigh
    {
      OFFSET 0 -1.70687 -2.19456
      CHANNELS 3 Zrotation Xrotation Yrotation
      JOINT lShin
      {
        OFFSET 0 -36.8199 0.73152
        CHANNELS 3 Zrotation Xrotation Yrotation
        JOINT lFoot
        {
          OFFSET -0.73152 -45.1104 -5.12064
          CHANNELS 3 Zrotation Xrotation Yrotation
          End Site
          {
            OFFSET 1.1221 -3.69964 12.103
          }
        }
      }
    }
  }
}
MOTION
Frames:	5
Frame Time:	0.03333
0.0 0.0 0.0 0.0 0.0 0.0 0.0 0.0 0.0 0.0 0.0 0.0 0.0 0.0 0.0 0.0 0.0 0.0 0.0 0.0 0.0 0.0 0.0 0.0 0.0 0.0 0.0 0.0 0.0 0.0 0.0 0.0 0.0 0.0 0.0 0.0 0.0 0.0 0.0 0.0 0.0 0.0 0.0 0.0 0.0 0.0 0.0 0.0 0.0 0.0 0.0 0.0 0.0 0.0 0.0 0.0 0.0 0.0 0.0 0.0 0.0 0.0 0.0 0.0 0.0 0.0 0.0 0.0 0.0 0.0 0.0 0.0 0.0 0.0 0.0 0.0 0.0 0.0 0.0 0.0 0.0 0.0 0.0 0.0 0.0 0.0 0.0 0.0 0.0 0.0 0.0 0.0 0.0 0.0 0.0 0.0 0.0 0.0 0.0 0.0 0.0 0.0 0.0 0.0 0.0 0.0 0.0 0.0 0.0 0.0 0.0 0.0 0.0 0.0 0.0 0.0 0.0 0.0 0.0 0.0 0.0 0.0 0.0 0.0 0.0 0.0 0.0 0.0 0.0 0.0 0.0 0.0
-0.6965 84.00710000000001 5.2866 -8.062031 -1.984316 -24.164265 -1.67628 39.663301 -0.0 7.624849 -4.318172 2.451729 -2.63627 34.778592 -153.721728 15.155851 37.951065 134.598828 0.000572 0.0 0.002174 0.000656 0.0 0.000413 -155.503835 -3.514546 161.838542 140.942847 -10.561016 159.320819 175.706793 19.163285 81.090943 175.576147 -10.686425 143.780393 -179.314218 -16.821295 89.368592 120.994979 -64.859695 91.131417 -140.764539 1.381108 116.229269 -169.019049 -26.717777 118.490653 68.986301 -80.153169 40.58017 -163.440537 -4.639747 143.14576 -145.100495 -1.437811 -178.677554 -150.411424 -34.310898 -173.240585 -164.715165 76.347426 -150.069996 32.146267 74.925773 1.375566 157.79666 -22.115657 -165.466813 84.942483 -44.120956 63.99895 -9.015592 45.459506 121.203319 173.408141 2.479492 -141.995079 -83.254287 -50.257045 -33.616172 33.574281 8.395993 6.298797 -12.216748 -21.784714 5.119005 78.205288 48.707207 -63.003317 0.503653 1.45229 -0.283719 -5.172445 -5.862072 0.704028 145.10055 -1.522314 178.650412 62.575413 87.661704 -75.946711 144.259049 9.237914 141.009706 25.656067 -40.249656 27.04305 -2e-06 0.000786 3e-06 -158.645651 -74.177687 -157.884474 -12.629081 29.185638 67.969858 -151.593702 -11.453312 68.292867 -179.999984 75.748856 -1.7e-05 -160.688254 77.593397 160.261803 14.833167 -51.352698 96.741198 -85.995868 75.0346 178.65657
-1.9627999999999999 83.4079 11.4994 -6.980664 -2.062042 -25.931481 -3.739011 38.337317 2.199025 8.015196 -4.208214 2.217776 -9.986373 30.623651 -110.55093 28.35086 22.489645 92.185229 -9.7e-05 0.0 -0.000408 -9.7e-05 0.0 -0.000408 -155.417102 -2.951455 161.718521 74.933347 -71.381655 110.780724 2.892692 87.399512 -96.259005 172.214525 -18.738311 143.264711 -0.544452 0.535945 0.086849 17.109599 -26.1055 -12.151442 -152.315299 -18.947544 121.431193 -62.037844 57.381087 46.109366 -39.288933 53.366167 32.877747 167.982428 -64.088496 132.989869 -72.351037 72.974603 90.218198 -159.836027 -0.422103 176.307694 -157.329182 57.246501 -150.511975 -151.245714 20.830896 -143.95597 -0.071235 -0.427821 0.094496 -62.341779 11.02916 -29.812149 178.575329 2.922515 -59.428929 171.266405 3.849416 -141.57074 0.542871 0.536714 -0.085263 133.28097 -32.828581 -116.702098 145.521156 -6.584944 -118.767018 62.898141 57.129136 -45.741109 -173.125868 -66.298005 -137.616928 144.470433 37.152292 -131.320991 0.020983 -1.725671 0.544934 154.093133 12.761623 -170.1062 152.347172 37.910829 147.689093 86.284395 -51.977939 85.171848 -0.002277 0.000427 -0.000569 -170.499308 -64.173861 8.648669 21.28938 -43.658516 -135.037032 -170.181826 -32.170401 41.678208 -179.980345 75.750109 -0.016172 -158.104602 83.680381 96.369901 43.164019 -24.194563 -60.688967 -106.970678 1.538497 0.397244
-4.5823 82.5895 16.35 -8.03463 4.163953 -28.083907 -1.115578 38.434811 0.657111 7.748873 -5.678655 -1.759319 0.254012 14.635139 17.069719 -3.851481 -16.005964 -34.73742 -0.000519 -0.0 0.002723 -0.000186 0.0 -0.002769 4.239439 -44.742735 -8.647914 -95.033679 -39.873502 -123.875957 -61.90274 -22.200515 -116.341446 101.908083 -71.113865 85.36639 -0.347985 0.342472 0.0543 -15.086916 14.920634 13.250917 -19.169956 24.115153 13.379728 -8.915134 22.329103 5.861151 -10.976486 25.789561 7.641223 -153.982249 20.032573 138.708259 -0.020669 -1.726191 -0.541555 8.591421 19.540263 2.737424 -7.142921 -15.707728 -6.727647 -145.949123 8.214183 -142.798766 9.651007 34.836323 -11.198765 -20.724712 19.553977 -61.506067 -160.356026 59.269943 -77.419283 167.350425 14.2747 -139.169173 0.4418 0.435231 -0.068904 122.838864 -14.515309 -110.210727 117.899944 27.950747 -99.679925 162.488296 -8.606817 -116.892729 158.52321 -0.19234 -142.143681 -9.272547 -18.141796 1.091566 145.111588 -0.669048 178.919338 -11.268827 13.757952 7.374761 -44.747427 86.377164 5.379957 7.416173 -19.064797 8.632122 179.992253 75.750515 0.006374 165.570171 -51.197189 -11.518795 -90.081556 76.597618 -171.807328 74.021033 82.971963 -154.225838 179.988045 75.748638 0.009836 -101.836993 85.670663 0.0 51.490857 2.257904 -5.058102 -110.395932 24.548011 6.829293
-5.6016 80.64750000000001 19.8187 -10.600257 5.247944 -26.773662 2.250215 35.449707 -1.229145 8.100488 -6.186408 0.453142 5.384772 33.288384 153.676392 -14.524376 34.673022 -169.545766 -0.001573 0.0 -0.002544 -0.001536 -0.0 0.002983 -153.049737 10.02333 158.667839 103.022595 -47.974335 130.52367 43.890035 -60.940647 95.426518 -15.612375 40.359878 4.202723 93.028394 -51.084133 40.50096 -123.46657 -86.637375 -162.008868 88.792311 -75.498919 40.050343 17.341874 -1.100181 -6.350612 -169.089841 -33.247287 145.375319 -11.713704 33.299165 9.485547 -145.118312 0.185649 -179.186235 -141.823434 -56.54242 -163.974743 -150.576737 31.03359 -146.364931 1.010437 -2.326399 -2.672231 83.951288 68.258326 -87.085806 -12.035196 -21.27263 -65.816565 60.913568 -67.037463 -25.877139 3.043594 -26.148425 4.907188 -11.109784 -11.092262 0.63996 31.678806 26.332438 -22.338612 -9.087697 -15.965521 4.19752 162.164856 -17.355773 -110.403449 0.219606 0.638466 -0.122684 7.302831 26.197664 -6.02773 0.021209 -1.725934 0.543217 -9.228632 14.091077 -1.865976 145.17353 12.068014 141.822097 -16.208144 41.615022 -5.890036 -0.0 -0.000586 -0.000305 -159.626693 -36.588041 -0.0 156.791049 -47.205077 103.170939 -146.728848 3.461985 157.568238 179.993213 75.750228 0.005585 -101.459014 79.399975 -78.1388 9.226724 56.253407 84.699208 -118.336199 33.246018 11.025568
